
        <svg xmlns="http://www.w3.org/2000/svg" xmlns:xlink="http://www.w3.org/1999/xlink" version="1.1" width="3342.8571428571427" 
        height="1244.0517548569073" viewBox="0 0 3342.8571428571427 1244.0517548569073">
			
			<g transform="scale(17.142857142857142) translate(10, 10)">
				<defs id="SvgjsDefs3046"><linearGradient id="SvgjsLinearGradient3051"><stop id="SvgjsStop3052" stop-color="#6d7cff" offset="0"></stop><stop id="SvgjsStop3053" stop-color="#ff51ff" offset="1"></stop></linearGradient></defs><g id="SvgjsG3047" featureKey="v37d4h-0" transform="matrix(1.3146099307851933,0,0,1.3146099307851933,10,1.0008576784956689)" fill="url(#SvgjsLinearGradient3051)"><title xmlns="http://www.w3.org/2000/svg">thunder</title><description xmlns="http://www.w3.org/2000/svg">Created with Sketch (http://www.bohemiancoding.com/sketch)</description><g xmlns="http://www.w3.org/2000/svg" stroke="none" stroke-width="1" fill="none" fill-rule="evenodd" xmlns:sketch="http://www.bohemiancoding.com/sketch/ns" sketch:type="MSPage"><path d="M7.84453211,28.3727825 L6.53711009,28.3727825 L6.53711009,28.2636464 C2.8266464,27.6377573 0,24.3926014 0,20.4834245 C0,17.3815919 1.77940179,14.6978953 4.36809738,13.4093002 C4.08177154,12.7584281 3.92226606,12.0378668 3.92226606,11.2791735 C3.92226606,8.37457487 6.26385931,6.01960148 9.15195413,6.01960148 C10.6907903,6.01960148 12.0753498,6.68888198 13.0323827,7.75263041 C15.054965,3.61071745 19.2897045,0.760029463 24.1873073,0.760029463 C30.9767503,0.760029463 36.4953782,6.23918864 36.6052017,13.042445 C39.6541098,14.1246019 41.8375046,17.0476091 41.8375046,20.4834245 C41.8375046,24.3926014 39.0108582,27.6377573 35.3003945,28.2636464 L35.3003945,28.3727825 L33.9929725,28.3727825 L32.2870123,28.3727825 L32.2870123,25.9065717 L33.6679235,25.9065717 L34.1067278,25.9065717 L34.537742,25.8347614 C37.0433383,25.4205701 39.4048825,22.4564406 39.4048825,19.9405169 C39.4048825,17.769539 37.9125081,15.7810902 35.8405232,15.0591407 L34.1372373,14.4654237 L34.1086756,12.6817083 C34.0242902,7.46905312 29.2123766,3.27027974 23.9311505,3.27027974 C20.1883356,3.27027974 16.8362888,5.3335423 15.1849323,8.6560489 L13.497225,12.0503658 L10.9280156,9.24591889 C10.4294925,8.69964802 9.74532207,8.39958374 9.00143283,8.39958374 C7.5694773,8.39958374 6.40495964,9.54983012 6.40495964,10.9642357 C6.40495964,11.3271339 6.47895931,11.6759266 6.62566001,12.0029197 L7.63309122,14.2495549 L5.4040191,15.3395319 C3.61894415,16.212796 2.51025028,17.9747119 2.51025028,19.9405176 C2.51025028,22.4564412 4.32907973,25.4205701 6.834676,25.8347614 L7.26439236,25.9065717 L7.70319582,25.9065717 L9.20425101,25.9065717 L9.20425101,28.3727825 L7.84453211,28.3727825 Z M19.759641,27.6416476 L15.0615017,25.5256668 L23.7444181,12.4745308 L21.1324341,24.1630879 L26.5596655,26.3552669 L15.7558653,38.227476 L19.759641,27.6416476 Z" fill="url(#SvgjsLinearGradient3051)" sketch:type="MSShapeGroup"></path></g></g><g id="SvgjsG3048" featureKey="UxBHKT-0" transform="matrix(1.9463962889692825,0,0,1.9463962889692825,73.32609927965726,-3.444811330000835)" fill="#ffffff"><path d="M9.72 18.9 q-0.38 0.52 -1.31 0.93 t-2.03 0.41 q-1.7 0 -2.95 -0.76 t-1.91 -2.07 t-0.66 -2.91 t0.66 -2.91 t1.91 -2.07 t2.95 -0.76 q1.14 0 2.01 0.39 t1.33 0.99 l0 -1.14 l2.96 0 l0 11 l-2.96 0 l0 -1.1 z M9.02 12.25 q-0.82 -0.87 -2.2 -0.87 q-1.4 0 -2.21 0.87 t-0.81 2.25 q0 1.34 0.83 2.22 t2.19 0.88 q1.4 0 2.21 -0.83 t0.81 -2.27 q0 -1.38 -0.82 -2.25 z M30.649 10.04 q1.13 1.24 1.13 3.46 l0 6.5 l-3.02 0 l0 -6.5 q0 -1.18 -0.59 -1.7 t-1.55 -0.52 q-0.8 0 -1.44 0.6 t-0.66 2 l0 6.12 l-3.02 0 l0 -6.5 q0 -1.18 -0.59 -1.7 t-1.53 -0.52 q-0.86 0 -1.49 0.64 t-0.63 2.26 l-0.02 5.82 l-2.98 0 l0 -11 l2.98 0 l0 1 q0.58 -0.52 1.4 -0.86 t1.5 -0.34 q2.32 0 3.54 1.5 q0.62 -0.7 1.54 -1.1 t2 -0.4 q2.3 0 3.43 1.24 z M36.438 10.1 q0.38 -0.52 1.31 -0.93 t2.03 -0.41 q1.7 0 2.95 0.76 t1.91 2.07 t0.66 2.91 t-0.66 2.91 t-1.91 2.07 t-2.95 0.76 q-1.14 0 -2.01 -0.39 t-1.33 -0.99 l0 4.68 l-2.96 0 l0 -14.54 l2.96 0 l0 1.1 z M37.138 16.75 q0.82 0.87 2.2 0.87 q1.4 0 2.21 -0.87 t0.81 -2.25 q0 -1.34 -0.83 -2.22 t-2.19 -0.88 q-1.4 0 -2.21 0.83 t-0.81 2.27 q0 1.38 0.82 2.25 z M50.037 16.08 q0 0.7 0.24 1.17 t1.12 0.47 q0.4 0 0.76 -0.04 l0 2.52 q-0.72 0.08 -1.34 0.08 q-1.28 0 -2.07 -0.21 t-1.23 -0.81 t-0.44 -1.72 l0 -6.1 l-1.34 0 l0 -2.62 l1.34 0 l0 -2.94 l2.96 0 l0 2.94 l2.2 0 l0 2.62 l-2.2 0 l0 4.64 z"></path></g>
			</g>
		</svg>
	